<?xml version="1.0" standalone="no"?>
<!DOCTYPE svg PUBLIC "-//W3C//DTD SVG 20010904//EN"
 "http://www.w3.org/TR/2001/REC-SVG-20010904/DTD/svg10.dtd">
<svg version="1.0" xmlns="http://www.w3.org/2000/svg"
 width="88.000000pt" height="88.000000pt" viewBox="0 0 88.000000 88.000000"
 preserveAspectRatio="xMidYMid meet">
<metadata>
Created by potrace 1.14, written by Peter Selinger 2001-2017
</metadata>
<g transform="translate(0.000000,88.000000) scale(0.100000,-0.100000)"
fill="#000000" stroke="none">
<path d="M382 854 c-4 -8 -5 -37 -2 -65 l5 -52 58 -1 c63 -1 59 -7 61 83 l0
45 -57 1 c-39 1 -60 -2 -65 -11z"/>
<path d="M211 850 c-4 -3 -8 -26 -8 -53 -1 -52 7 -57 77 -54 l35 2 1 53 c0 30
-4 53 -10 53 -37 4 -88 4 -95 -1z"/>
<path d="M569 836 c-1 -12 -2 -30 -3 -41 -3 -43 12 -55 62 -52 l47 3 0 54 0
55 -52 1 c-47 0 -53 -2 -54 -20z"/>
<path d="M75 841 c-38 -6 -40 -8 -41 -43 0 -21 4 -38 8 -39 4 0 22 -1 40 -2
31 -1 32 1 35 46 2 26 2 46 1 45 -2 0 -21 -4 -43 -7z m26 -38 c-12 -20 -14
-14 -5 12 4 9 9 14 11 11 3 -2 0 -13 -6 -23z m-31 -3 c0 -5 -4 -10 -10 -10 -5
0 -10 5 -10 10 0 6 5 10 10 10 6 0 10 -4 10 -10z m27 -26 c-3 -3 -12 -4 -19
-1 -8 3 -5 6 6 6 11 1 17 -2 13 -5z"/>
<path d="M766 839 c-3 -8 -4 -29 -3 -48 2 -33 4 -34 40 -34 20 0 40 3 44 6 3
4 1 7 -5 7 -7 0 -12 5 -12 11 0 5 4 8 9 5 9 -6 12 43 4 57 -2 4 -13 2 -24 -4
-15 -7 -24 -7 -35 1 -11 10 -15 9 -18 -1z m29 -27 c-3 -3 -11 0 -18 7 -9 10
-8 11 6 5 10 -3 15 -9 12 -12z m35 8 c0 -5 -5 -10 -11 -10 -5 0 -7 5 -4 10 3
6 8 10 11 10 2 0 4 -4 4 -10z"/>
<path d="M370 622 c0 -47 4 -71 13 -74 10 -4 87 -3 122 1 7 1 10 28 10 69 l-1
67 -72 3 -72 3 0 -69z"/>
<path d="M22 620 l3 -55 53 -1 c28 -1 52 2 53 7 1 5 1 20 1 34 0 74 3 71 -57
70 l-56 0 3 -55z"/>
<path d="M199 678 c-1 -4 -1 -101 0 -113 1 -12 120 -14 122 -2 1 9 1 60 0 92
-1 24 -4 25 -61 25 -33 0 -60 -1 -61 -2z"/>
<path d="M563 618 l2 -63 60 0 60 0 0 63 0 62 -62 0 -62 0 2 -62z"/>
<path d="M750 620 l0 -56 55 -1 56 0 -3 55 -3 56 -52 0 -53 1 0 -55z"/>
<path d="M359 488 c-2 -55 1 -119 5 -127 6 -9 137 -8 151 1 6 3 10 39 9 80
l-1 73 -81 3 -82 3 -1 -33z"/>
<path d="M189 498 c-2 -23 -2 -82 0 -111 1 -27 1 -27 71 -26 39 1 70 5 71 10
0 5 0 34 0 64 0 30 0 60 0 65 -1 15 -141 13 -142 -2z"/>
<path d="M550 435 l0 -76 73 3 72 3 1 73 0 72 -73 0 -73 0 0 -75z"/>
<path d="M19 497 c-5 -7 -5 -117 0 -118 3 -1 32 -2 63 -3 l57 -2 0 62 -1 63
-59 0 c-32 0 -60 -1 -60 -2z"/>
<path d="M744 438 l1 -63 50 -1 c73 0 74 1 73 66 l-2 57 -62 2 -62 1 2 -62z"/>
<path d="M370 254 l0 -76 73 4 72 3 0 55 c1 91 2 90 -76 90 l-69 0 0 -76z"/>
<path d="M199 299 c0 -10 -1 -35 -1 -54 0 -19 1 -39 1 -43 1 -5 28 -9 61 -8
53 0 60 2 61 21 2 24 2 75 0 92 -1 7 -23 11 -61 12 -53 0 -60 -2 -61 -20z"/>
<path d="M561 256 l1 -62 61 0 61 1 1 61 2 61 -63 1 -63 1 0 -63z"/>
<path d="M20 255 l0 -55 55 0 c30 0 55 3 56 8 0 4 1 27 2 52 l2 45 -58 3 -57
3 0 -56z"/>
<path d="M750 255 l0 -55 55 0 55 0 0 55 0 55 -55 0 -55 0 0 -55z"/>
<path d="M380 77 l0 -63 63 0 62 0 0 61 -1 60 -62 2 -62 2 0 -62z"/>
<path d="M207 123 c-2 -4 -3 -28 -3 -53 l1 -45 55 0 55 0 0 50 0 50 -52 3
c-28 2 -53 -1 -56 -5z"/>
<path d="M569 113 c0 -10 -2 -35 -3 -55 l-2 -38 58 0 58 0 0 55 0 55 -55 0
c-45 0 -55 -3 -56 -17z"/>
<path d="M33 106 c1 -6 11 -17 22 -24 20 -13 19 -13 -2 -7 -17 5 -21 2 -18
-12 2 -10 4 -21 4 -24 2 -13 75 -3 79 10 3 10 -1 12 -14 8 -17 -6 -17 -5 -4 5
9 7 16 22 17 33 1 17 -5 20 -42 21 -27 0 -43 -4 -42 -10z m60 -13 c-7 -2 -19
-2 -25 0 -7 3 -2 5 12 5 14 0 19 -2 13 -5z"/>
<path d="M764 75 l0 -42 42 1 41 0 -1 41 c-2 40 -3 40 -42 41 l-40 0 0 -41z
m46 25 c0 -5 -8 -10 -17 -10 -15 0 -16 2 -3 10 19 12 20 12 20 0z m17 -32 c-3
-7 -5 -2 -5 12 0 14 2 19 5 13 2 -7 2 -19 0 -25z m-25 -20 c-7 -7 -12 -8 -12
-2 0 14 12 26 19 19 2 -3 -1 -11 -7 -17z"/>
</g>
</svg>
